<mxfile host="app.diagrams.net" modified="2022-06-06T07:53:31.582Z" agent="5.0 (Macintosh; Intel Mac OS X 10_16_0) AppleWebKit/537.36 (KHTML, like Gecko) Chrome/84.0.4147.135 Safari/537.36" etag="OfESo5h-Mp-tzqOhIpgN" version="19.0.0" type="github">
  <diagram id="CK5jT10rr-_N4nWXyFcZ" name="Page-1">
    <mxGraphModel dx="2066" dy="1065" grid="1" gridSize="10" guides="1" tooltips="1" connect="1" arrows="1" fold="1" page="1" pageScale="1" pageWidth="827" pageHeight="1169" math="0" shadow="0">
      <root>
        <mxCell id="0" />
        <mxCell id="1" parent="0" />
        <mxCell id="gmWAM6frCMXmDmfekaVd-11" value="FMS库存管理-商品凭证" style="swimlane;childLayout=stackLayout;resizeParent=1;resizeParentMax=0;startSize=20;fontSize=14;" vertex="1" parent="1">
          <mxGeometry x="130" y="80" width="750" height="1000" as="geometry">
            <mxRectangle x="130" y="80" width="60" height="20" as="alternateBounds" />
          </mxGeometry>
        </mxCell>
        <mxCell id="gmWAM6frCMXmDmfekaVd-12" value="数仓" style="swimlane;startSize=20;fontSize=14;" vertex="1" parent="gmWAM6frCMXmDmfekaVd-11">
          <mxGeometry y="20" width="150" height="980" as="geometry" />
        </mxCell>
        <mxCell id="gmWAM6frCMXmDmfekaVd-25" value="推送数据" style="rounded=0;whiteSpace=wrap;html=1;fontSize=14;" vertex="1" parent="gmWAM6frCMXmDmfekaVd-12">
          <mxGeometry x="15" y="50" width="120" height="60" as="geometry" />
        </mxCell>
        <mxCell id="gmWAM6frCMXmDmfekaVd-13" value="FMS接入层" style="swimlane;startSize=20;fontSize=14;" vertex="1" parent="gmWAM6frCMXmDmfekaVd-11">
          <mxGeometry x="150" y="20" width="150" height="980" as="geometry" />
        </mxCell>
        <mxCell id="gmWAM6frCMXmDmfekaVd-29" value="接收数据&lt;br&gt;状态=&amp;gt;待初始化" style="rounded=0;whiteSpace=wrap;html=1;fontSize=14;" vertex="1" parent="gmWAM6frCMXmDmfekaVd-13">
          <mxGeometry x="15" y="50" width="120" height="60" as="geometry" />
        </mxCell>
        <mxCell id="gmWAM6frCMXmDmfekaVd-32" value="是否需处理" style="rhombus;whiteSpace=wrap;html=1;fontSize=14;rounded=0;" vertex="1" parent="gmWAM6frCMXmDmfekaVd-13">
          <mxGeometry x="11.25" y="170" width="127.5" height="90" as="geometry" />
        </mxCell>
        <mxCell id="gmWAM6frCMXmDmfekaVd-33" value="" style="edgeStyle=orthogonalEdgeStyle;rounded=0;orthogonalLoop=1;jettySize=auto;html=1;fontSize=14;" edge="1" parent="gmWAM6frCMXmDmfekaVd-13" source="gmWAM6frCMXmDmfekaVd-29" target="gmWAM6frCMXmDmfekaVd-32">
          <mxGeometry relative="1" as="geometry" />
        </mxCell>
        <mxCell id="gmWAM6frCMXmDmfekaVd-35" value="" style="edgeStyle=orthogonalEdgeStyle;rounded=0;orthogonalLoop=1;jettySize=auto;html=1;fontSize=14;" edge="1" parent="gmWAM6frCMXmDmfekaVd-13" source="gmWAM6frCMXmDmfekaVd-32">
          <mxGeometry relative="1" as="geometry">
            <mxPoint x="75" y="320" as="targetPoint" />
          </mxGeometry>
        </mxCell>
        <mxCell id="gmWAM6frCMXmDmfekaVd-40" value="是否需初始化&lt;br&gt;（补足成本信息）" style="rhombus;whiteSpace=wrap;html=1;fontSize=14;rounded=0;" vertex="1" parent="gmWAM6frCMXmDmfekaVd-13">
          <mxGeometry x="11.25" y="320" width="127.5" height="90" as="geometry" />
        </mxCell>
        <mxCell id="gmWAM6frCMXmDmfekaVd-42" value="推送库存管理" style="rounded=0;whiteSpace=wrap;html=1;fontSize=14;" vertex="1" parent="gmWAM6frCMXmDmfekaVd-13">
          <mxGeometry x="15" y="610" width="120" height="60" as="geometry" />
        </mxCell>
        <mxCell id="gmWAM6frCMXmDmfekaVd-14" value="FMS库存管理" style="swimlane;startSize=20;fontSize=14;" vertex="1" parent="gmWAM6frCMXmDmfekaVd-11">
          <mxGeometry x="300" y="20" width="150" height="980" as="geometry">
            <mxRectangle x="240" y="20" width="30" height="780" as="alternateBounds" />
          </mxGeometry>
        </mxCell>
        <mxCell id="gmWAM6frCMXmDmfekaVd-44" value="生成商品凭证" style="whiteSpace=wrap;html=1;fontSize=14;rounded=0;" vertex="1" parent="gmWAM6frCMXmDmfekaVd-14">
          <mxGeometry x="15" y="610" width="120" height="60" as="geometry" />
        </mxCell>
        <mxCell id="gmWAM6frCMXmDmfekaVd-22" value="会计引擎" style="swimlane;startSize=20;fontSize=14;" vertex="1" parent="gmWAM6frCMXmDmfekaVd-11">
          <mxGeometry x="450" y="20" width="150" height="980" as="geometry">
            <mxRectangle x="240" y="20" width="30" height="780" as="alternateBounds" />
          </mxGeometry>
        </mxCell>
        <mxCell id="gmWAM6frCMXmDmfekaVd-50" value="汇总推送EBS" style="whiteSpace=wrap;html=1;fontSize=14;rounded=0;" vertex="1" parent="gmWAM6frCMXmDmfekaVd-22">
          <mxGeometry x="15" y="750" width="120" height="60" as="geometry" />
        </mxCell>
        <mxCell id="gmWAM6frCMXmDmfekaVd-23" value="EBS" style="swimlane;startSize=20;fontSize=14;" vertex="1" parent="gmWAM6frCMXmDmfekaVd-11">
          <mxGeometry x="600" y="20" width="150" height="980" as="geometry">
            <mxRectangle x="240" y="20" width="30" height="780" as="alternateBounds" />
          </mxGeometry>
        </mxCell>
        <mxCell id="gmWAM6frCMXmDmfekaVd-52" value="接收凭证" style="whiteSpace=wrap;html=1;fontSize=14;rounded=0;" vertex="1" parent="gmWAM6frCMXmDmfekaVd-23">
          <mxGeometry x="15" y="750" width="120" height="60" as="geometry" />
        </mxCell>
        <mxCell id="gmWAM6frCMXmDmfekaVd-45" value="" style="edgeStyle=orthogonalEdgeStyle;rounded=0;orthogonalLoop=1;jettySize=auto;html=1;fontSize=14;" edge="1" parent="gmWAM6frCMXmDmfekaVd-11" source="gmWAM6frCMXmDmfekaVd-42" target="gmWAM6frCMXmDmfekaVd-44">
          <mxGeometry relative="1" as="geometry" />
        </mxCell>
        <mxCell id="gmWAM6frCMXmDmfekaVd-53" value="" style="edgeStyle=orthogonalEdgeStyle;rounded=0;orthogonalLoop=1;jettySize=auto;html=1;fontSize=14;" edge="1" parent="gmWAM6frCMXmDmfekaVd-11" source="gmWAM6frCMXmDmfekaVd-50" target="gmWAM6frCMXmDmfekaVd-52">
          <mxGeometry relative="1" as="geometry" />
        </mxCell>
        <mxCell id="gmWAM6frCMXmDmfekaVd-54" style="edgeStyle=orthogonalEdgeStyle;rounded=0;orthogonalLoop=1;jettySize=auto;html=1;entryX=0;entryY=0.5;entryDx=0;entryDy=0;fontSize=14;" edge="1" parent="gmWAM6frCMXmDmfekaVd-11" source="gmWAM6frCMXmDmfekaVd-25" target="gmWAM6frCMXmDmfekaVd-29">
          <mxGeometry relative="1" as="geometry" />
        </mxCell>
        <mxCell id="gmWAM6frCMXmDmfekaVd-43" value="" style="edgeStyle=orthogonalEdgeStyle;rounded=0;orthogonalLoop=1;jettySize=auto;html=1;fontSize=14;" edge="1" parent="1" source="gmWAM6frCMXmDmfekaVd-36" target="gmWAM6frCMXmDmfekaVd-42">
          <mxGeometry relative="1" as="geometry" />
        </mxCell>
        <mxCell id="gmWAM6frCMXmDmfekaVd-36" value="初始化" style="whiteSpace=wrap;html=1;fontSize=14;rounded=0;" vertex="1" parent="1">
          <mxGeometry x="295" y="570" width="120" height="60" as="geometry" />
        </mxCell>
        <mxCell id="gmWAM6frCMXmDmfekaVd-41" style="edgeStyle=orthogonalEdgeStyle;rounded=0;orthogonalLoop=1;jettySize=auto;html=1;fontSize=14;" edge="1" parent="1" source="gmWAM6frCMXmDmfekaVd-40" target="gmWAM6frCMXmDmfekaVd-36">
          <mxGeometry relative="1" as="geometry" />
        </mxCell>
        <mxCell id="gmWAM6frCMXmDmfekaVd-51" value="" style="edgeStyle=orthogonalEdgeStyle;rounded=0;orthogonalLoop=1;jettySize=auto;html=1;fontSize=14;" edge="1" parent="1" source="gmWAM6frCMXmDmfekaVd-46" target="gmWAM6frCMXmDmfekaVd-50">
          <mxGeometry relative="1" as="geometry" />
        </mxCell>
        <mxCell id="gmWAM6frCMXmDmfekaVd-46" value="推送会计引擎" style="whiteSpace=wrap;html=1;fontSize=14;rounded=0;" vertex="1" parent="1">
          <mxGeometry x="445" y="850" width="120" height="60" as="geometry" />
        </mxCell>
        <mxCell id="gmWAM6frCMXmDmfekaVd-47" value="" style="edgeStyle=orthogonalEdgeStyle;rounded=0;orthogonalLoop=1;jettySize=auto;html=1;fontSize=14;" edge="1" parent="1" source="gmWAM6frCMXmDmfekaVd-44" target="gmWAM6frCMXmDmfekaVd-46">
          <mxGeometry relative="1" as="geometry" />
        </mxCell>
      </root>
    </mxGraphModel>
  </diagram>
</mxfile>
